<svg xmlns="http://www.w3.org/2000/svg" xmlns:xlink="http://www.w3.org/1999/xlink" width="300" zoomAndPan="magnify" viewBox="0 0 224.87999 225" height="300" preserveAspectRatio="xMidYMid meet" version="1.0"><defs><clipPath id="3713c8d1a3"><path d="M 21 11.855469 L 212 11.855469 L 212 206 L 21 206 Z M 21 11.855469 " clip-rule="nonzero"/></clipPath><clipPath id="be86ae0eee"><path d="M 12.78125 198 L 33 198 L 33 213.5 L 12.78125 213.5 Z M 12.78125 198 " clip-rule="nonzero"/></clipPath></defs><g clip-path="url(#3713c8d1a3)"><path fill="#ffffff" d="M 21.300781 204.453125 C 20.695312 186.855469 22.136719 168.625 31.945312 153.472656 C 40.925781 139.605469 55.792969 130.496094 72.167969 128.601562 C 80.164062 127.675781 88.351562 128.613281 95.78125 131.78125 C 102.183594 134.507812 108.222656 138.902344 111.789062 144.996094 C 115.328125 151.046875 115.9375 158.890625 111.859375 164.855469 C 107.691406 170.945312 99.933594 173.328125 92.863281 173.292969 C 85.210938 173.257812 77.882812 170.253906 72.15625 165.207031 C 65.898438 159.699219 62.179688 152.15625 60.039062 144.1875 C 57.644531 135.261719 56.375 125.875 55.800781 116.660156 C 55.203125 107.074219 55.621094 97.40625 57.425781 87.964844 C 60.460938 72.097656 67.65625 57.113281 78.523438 45.136719 C 89.824219 32.691406 104.730469 24.25 120.496094 18.816406 C 127.734375 16.324219 135.234375 14.296875 142.816406 13.175781 C 149.113281 12.246094 155.484375 11.859375 161.84375 11.867188 C 175.761719 11.890625 190.269531 13.597656 203.144531 19.164062 C 206.054688 20.421875 208.859375 21.90625 211.488281 23.675781 C 212.164062 24.132812 211.527344 25.242188 210.84375 24.78125 C 199.765625 17.3125 185.800781 14.613281 172.707031 13.578125 C 160.175781 12.585938 147.402344 13.121094 135.132812 15.960938 C 119.199219 19.648438 103.519531 25.898438 90.449219 35.898438 C 77.886719 45.503906 68.289062 58.699219 62.769531 73.523438 C 56.550781 90.21875 55.746094 108.339844 57.945312 125.886719 C 58.523438 130.484375 59.277344 135.066406 60.25 139.59375 C 61.160156 143.828125 62.324219 148.042969 64.113281 152 C 67.261719 158.953125 72.371094 164.910156 79.140625 168.527344 C 85.761719 172.0625 93.734375 173.050781 100.957031 170.886719 C 104.355469 169.871094 107.570312 168.09375 109.886719 165.355469 C 112.28125 162.527344 113.480469 158.839844 113.445312 155.144531 C 113.375 148.332031 109.285156 142.378906 104.160156 138.21875 C 98.429688 133.570312 91.152344 130.761719 83.863281 129.878906 C 67.828125 127.9375 51.035156 134.132812 39.785156 145.664062 C 34.363281 151.21875 30.203125 157.949219 27.429688 165.191406 C 24.265625 173.464844 22.925781 182.308594 22.554688 191.128906 C 22.371094 195.566406 22.421875 200.011719 22.574219 204.449219 C 22.601562 205.273438 21.328125 205.273438 21.300781 204.453125 Z M 21.300781 204.453125 " fill-opacity="1" fill-rule="nonzero"/></g><g clip-path="url(#be86ae0eee)"><path fill="#ffffff" d="M 32.449219 199.652344 C 30.996094 201.941406 29.546875 204.234375 28.097656 206.523438 C 27.375 207.664062 26.648438 208.804688 25.925781 209.945312 C 25.34375 210.871094 24.785156 211.859375 23.90625 212.539062 C 23.027344 213.222656 21.84375 213.496094 20.773438 213.105469 C 19.777344 212.742188 19.03125 211.96875 18.46875 211.089844 C 18.210938 210.6875 18.003906 210.261719 17.800781 209.832031 C 17.546875 209.285156 17.292969 208.738281 17.039062 208.191406 C 16.617188 207.277344 16.207031 206.359375 15.796875 205.445312 C 14.984375 203.621094 14.175781 201.796875 13.332031 199.992188 C 13.195312 199.699219 13.058594 199.40625 12.921875 199.117188 C 12.777344 198.816406 12.828125 198.414062 13.148438 198.242188 C 13.433594 198.09375 13.867188 198.148438 14.019531 198.472656 C 14.898438 200.332031 15.742188 202.203125 16.578125 204.082031 C 16.957031 204.933594 17.335938 205.78125 17.71875 206.625 C 18.183594 207.648438 18.636719 208.679688 19.140625 209.683594 C 19.339844 210.082031 19.574219 210.46875 19.835938 210.828125 C 19.859375 210.859375 19.910156 210.921875 19.804688 210.785156 C 19.820312 210.804688 19.832031 210.824219 19.847656 210.84375 C 19.886719 210.890625 19.921875 210.9375 19.960938 210.980469 C 20.035156 211.066406 20.113281 211.152344 20.191406 211.234375 C 20.269531 211.308594 20.347656 211.382812 20.425781 211.453125 C 20.464844 211.484375 20.511719 211.515625 20.546875 211.554688 C 20.445312 211.449219 20.460938 211.492188 20.503906 211.519531 C 20.53125 211.539062 20.558594 211.5625 20.585938 211.582031 C 20.675781 211.644531 20.769531 211.703125 20.867188 211.757812 C 20.914062 211.78125 20.960938 211.808594 21.007812 211.828125 C 21.027344 211.839844 21.050781 211.847656 21.070312 211.859375 C 21.183594 211.914062 20.9375 211.808594 21.046875 211.851562 C 21.144531 211.886719 21.246094 211.921875 21.347656 211.949219 C 21.40625 211.964844 21.464844 211.976562 21.519531 211.988281 C 21.542969 211.992188 21.570312 211.996094 21.59375 212 C 21.726562 212.023438 21.433594 211.988281 21.566406 211.996094 C 21.679688 212.003906 21.792969 212.011719 21.90625 212.007812 C 21.964844 212.007812 22.019531 212.003906 22.078125 212 C 22.160156 211.992188 22.160156 211.953125 22.050781 212.003906 C 22.082031 211.988281 22.136719 211.992188 22.167969 211.984375 C 22.285156 211.960938 22.394531 211.933594 22.507812 211.894531 C 22.550781 211.878906 22.601562 211.847656 22.648438 211.839844 C 22.515625 211.863281 22.558594 211.878906 22.617188 211.851562 C 22.652344 211.835938 22.683594 211.820312 22.71875 211.800781 C 22.816406 211.75 22.914062 211.695312 23.007812 211.632812 C 23.054688 211.601562 23.097656 211.566406 23.144531 211.535156 C 23.230469 211.472656 23.109375 211.558594 23.101562 211.566406 C 23.125 211.539062 23.164062 211.515625 23.1875 211.496094 C 23.371094 211.339844 23.535156 211.171875 23.6875 210.992188 C 23.726562 210.949219 23.761719 210.90625 23.796875 210.863281 C 23.828125 210.828125 23.9375 210.671875 23.824219 210.832031 C 23.894531 210.730469 23.96875 210.632812 24.039062 210.53125 C 24.179688 210.328125 24.3125 210.117188 24.445312 209.910156 C 25.15625 208.789062 25.863281 207.671875 26.570312 206.550781 C 27.988281 204.3125 29.40625 202.074219 30.824219 199.839844 C 31 199.5625 31.175781 199.285156 31.347656 199.011719 C 31.527344 198.730469 31.925781 198.589844 32.222656 198.78125 C 32.5 198.960938 32.640625 199.351562 32.449219 199.652344 Z M 32.449219 199.652344 " fill-opacity="1" fill-rule="nonzero"/></g></svg>